<svg width="1200" height="669" xmlns="http://www.w3.org/2000/svg"><g fill="none" fill-rule="evenodd"><g opacity=".245"><path d="M475 653h24v16h-24v-16zm-152 0h120v16H323v-16zm-64 0h32v16h-32v-16zm-96 0h64v16h-64v-16zm-48 0h16v16h-16v-16z" fill="#659CC8"/><path d="M320 589h48v32h-48v-32zm-80 0h48v32h-48v-32zm-112 0h80v32h-80v-32zm-48 0h16v32H80v-32zm-80 0h48v32H0v-32z" fill="#78AF9F"/></g><g opacity=".067"><path d="M525 112h24v48h-24v-48zm-208 0h176v48H317v-48zm-128 0h96v48h-96v-48zm-56 0h24v48h-24v-48z" fill="#00bfa5"/><path d="M339 48h24v32h-24V48zm-128 0h96v32h-96V48zm-96 0h64v32h-64V48zm-64 0h32v32H51V48z" fill="#7044ff"/><path d="M467 0h32v16h-32V0zM275 0h160v16H275V0zm-48 0h16v16h-16V0zm-96 0h64v16h-64V0z" fill="#C13F21"/></g><g opacity=".245"><path d="M711 653h-60v16h60v-16zm64 0h-32v16h32v-16zm96 0h-64v16h64v-16zm48 0h-16v16h16v-16z" fill="#659CC8"/><path d="M714 589h-48v32h48v-32zm80 0h-48v32h48v-32zm112 0h-80v32h80v-32zm48 0h-16v32h16v-32zm80 0h-48v32h48v-32z" fill="#78AF9F"/></g><g opacity=".067"><path d="M783 112h-70v48h70v-48zm128 0h-96v48h96v-48zm56 0h-24v48h24v-48z" fill="#00bfa5"/><path d="M761 48h-24v32h24V48zm128 0h-96v32h96V48zm96 0h-64v32h64V48zm64 0h-32v32h32V48z" fill="#7044ff"/><path d="M825 0H665v16h160V0zm48 0h-16v16h16V0zm96 0h-64v16h64V0z" fill="#C13F21"/></g></g></svg>