<svg width="1200" height="669" xmlns="http://www.w3.org/2000/svg"><g fill="none" fill-rule="evenodd"><g opacity=".245"><path d="M475 653h24v16h-24v-16zm-152 0h120v16H323v-16zm-64 0h32v16h-32v-16zm-96 0h64v16h-64v-16zm-48 0h16v16h-16v-16z" fill="#659CC8"/><path d="M320 589h48v32h-48v-32zm-80 0h48v32h-48v-32zm-112 0h80v32h-80v-32zm-48 0h16v32H80v-32zm-80 0h48v32H0v-32z" fill="#78AF9F"/></g><g opacity=".067"><path d="M525 112h24v48h-24v-48zm-208 0h176v48H317v-48zm-128 0h96v48h-96v-48zm-56 0h24v48h-24v-48z" fill="#DDA032"/><path d="M339 48h24v32h-24V48zm-128 0h96v32h-96V48zm-96 0h64v32h-64V48zm-64 0h32v32H51V48z" fill="#D36E2D"/><path d="M467 0h32v16h-32V0zM275 0h160v16H275V0zm-48 0h16v16h-16V0zm-96 0h64v16h-64V0z" fill="#C13F21"/></g><path d="M496 380h226v8H496v-8zm-76 0h60v8h-60v-8zm-32 0h16v8h-16v-8zm-48 0h32v8h-32v-8zm-24 0h8v8h-8v-8z" fill="#659CC8"/><path d="M408 348h314v16H408v-16zm-40 0h24v16h-24v-16zm-56 0h40v16h-40v-16zm-24 0h8v16h-8v-16zm-40 0h24v16h-24v-16z" fill="#78AF9F"/><path d="M380 308h342v24H380v-24zm-104 0h88v24h-88v-24zm-64 0h48v24h-48v-24zm-28 0h12v24h-12v-24z" fill="#DDA032"/><path d="M412 276h310v16H412v-16zm-64 0h48v16h-48v-16zm-48 0h32v16h-32v-16zm-32 0h16v16h-16v-16z" fill="#D36E2D"/><path d="M402 252h320v8H402v-8zm-96 0h80v8h-80v-8zm-24 0h8v8h-8v-8zm-48 0h32v8h-32v-8z" fill="#C13F21"/><g opacity=".245"><path d="M711 653h-60v16h60v-16zm64 0h-32v16h32v-16zm96 0h-64v16h64v-16zm48 0h-16v16h16v-16z" fill="#659CC8"/><path d="M714 589h-48v32h48v-32zm80 0h-48v32h48v-32zm112 0h-80v32h80v-32zm48 0h-16v32h16v-32zm80 0h-48v32h48v-32z" fill="#78AF9F"/></g><g opacity=".067"><path d="M783 112h-70v48h70v-48zm128 0h-96v48h96v-48zm56 0h-24v48h24v-48z" fill="#DDA032"/><path d="M761 48h-24v32h24V48zm128 0h-96v32h96V48zm96 0h-64v32h64V48zm64 0h-32v32h32V48z" fill="#D36E2D"/><path d="M825 0H665v16h160V0zm48 0h-16v16h16V0zm96 0h-64v16h64V0z" fill="#C13F21"/></g><path d="M888 380H662v8h226v-8zm76 0h-60v8h60v-8zm32 0h-16v8h16v-8zm48 0h-32v8h32v-8zm24 0h-8v8h8v-8z" fill="#659CC8"/><path d="M976 348H662v16h314v-16zm40 0h-24v16h24v-16zm56 0h-40v16h40v-16zm24 0h-8v16h8v-16zm40 0h-24v16h24v-16z" fill="#78AF9F"/><path d="M1004 308H662v24h342v-24zm104 0h-88v24h88v-24zm64 0h-48v24h48v-24zm28 0h-12v24h12v-24z" fill="#DDA032"/><path d="M972 276H662v16h310v-16zm64 0h-48v16h48v-16zm48 0h-32v16h32v-16zm32 0h-16v16h16v-16z" fill="#D36E2D"/><path d="M982 252H662v8h320v-8zm96 0h-80v8h80v-8zm24 0h-8v8h8v-8zm48 0h-32v8h32v-8z" fill="#C13F21"/></g></svg>