<svg width="400" height="400" xmlns="http://www.w3.org/2000/svg"><path d="M112 115.12c0 78.427.109 101.629.48 102 .364.364 7.351.48 29 .48H170v84.8c0 56.267-.135 84.8-.4 84.8-.22 0-.4.54-.4 1.2 0 1.022.152 1.2 1.029 1.2 1.007 0 2.171-.8 2.171-1.492 0-.602.986-2.502 1.3-2.505.165-.002.3-.363.3-.803 0-.44.164-.8.365-.8.201 0 .486-.72.635-1.6.149-.88.434-1.6.635-1.6s.365-.36.365-.8c0-.44.18-.8.4-.8.22 0 .4-.36.4-.8 0-.44.18-.8.4-.8.22 0 .4-.36.4-.8 0-.44.18-.8.4-.8.22 0 .4-.27.4-.6 0-.33.18-.6.4-.6.22 0 .4-.36.4-.8 0-.44.18-.8.4-.8.22 0 .4-.36.4-.8 0-.44.18-.8.4-.8.22 0 .4-.36.4-.8 0-.44.18-.8.4-.8.22 0 .4-.36.4-.8 0-.44.18-.8.4-.8.22 0 .4-.36.4-.8 0-.44.18-.8.4-.8.22 0 .4-.36.4-.8 0-.44.18-.8.4-.8.22 0 .4-.36.4-.8 0-.44.18-.8.4-.8.22 0 .4-.36.4-.8 0-.44.18-.8.4-.8.22 0 .4-.36.4-.8 0-.44.18-.8.4-.8.22 0 .4-.36.4-.8 0-.44.146-.8.325-.8.179 0 .573-.63.875-1.4.302-.77.696-1.4.875-1.4.179 0 .325-.36.325-.8 0-.44.18-.8.4-.8.22 0 .4-.234.4-.52 0-.699.933-2.673 1.265-2.677.146-.002.386-.723.535-1.603.149-.88.434-1.6.635-1.6s.365-.36.365-.8c0-.44.18-.8.4-.8.22 0 .4-.36.4-.8 0-.44.18-.8.4-.8.22 0 .4-.36.4-.8 0-.44.18-.8.4-.8.22 0 .4-.36.4-.8 0-.44.18-.8.4-.8.22 0 .4-.27.4-.6 0-.33.18-.6.4-.6.22 0 .4-.36.4-.8 0-.44.18-.8.4-.8.22 0 .4-.36.4-.8 0-.44.18-.8.4-.8.22 0 .4-.36.4-.8 0-.44.18-.8.4-.8.22 0 .4-.36.4-.8 0-.44.18-.8.4-.8.22 0 .4-.36.4-.8 0-.44.18-.8.4-.8.22 0 .4-.36.4-.8 0-.44.18-.8.4-.8.22 0 .4-.36.4-.8 0-.44.18-.8.4-.8.22 0 .4-.36.4-.8 0-.44.18-.8.4-.8.22 0 .4-.36.4-.8 0-.44.135-.801.3-.801.165-.001.75-.991 1.3-2.199.55-1.208 1.135-2.198 1.3-2.199.165 0 .3-.235.3-.521 0-.736.941-2.673 1.3-2.677.165-.002.3-.363.3-.803 0-.44.164-.8.365-.8.201 0 .486-.72.635-1.6.149-.88.434-1.6.635-1.6s.365-.36.365-.8c0-.44.18-.8.4-.8.22 0 .4-.36.4-.8 0-.44.18-.8.4-.8.22 0 .4-.36.4-.8 0-.44.18-.8.4-.8.22 0 .4-.27.4-.6 0-.33.18-.6.4-.6.22 0 .4-.36.4-.8 0-.44.18-.8.4-.8.22 0 .4-.36.4-.8 0-.44.18-.8.4-.8.22 0 .4-.36.4-.8 0-.44.18-.8.4-.8.22 0 .4-.36.4-.8 0-.44.18-.8.4-.8.22 0 .4-.36.4-.8 0-.44.18-.8.4-.8.22 0 .4-.36.4-.8 0-.44.18-.8.4-.8.22 0 .4-.36.4-.8 0-.44.18-.8.4-.8.22 0 .4-.36.4-.8 0-.44.18-.8.4-.8.22 0 .4-.36.4-.8 0-.44.18-.8.4-.8.22 0 .4-.36.4-.8 0-.44.146-.8.325-.8.179 0 .573-.63.875-1.4.302-.77.696-1.4.875-1.4.179 0 .325-.234.325-.52 0-.736.941-2.673 1.3-2.677.165-.002.3-.363.3-.803 0-.44.164-.8.365-.8.201 0 .486-.72.635-1.6.149-.88.434-1.6.635-1.6s.365-.36.365-.8c0-.44.18-.8.4-.8.22 0 .4-.36.4-.8 0-.44.18-.8.4-.8.22 0 .4-.36.4-.8 0-.44.18-.8.4-.8.22 0 .4-.27.4-.6 0-.33.18-.6.4-.6.22 0 .4-.36.4-.8 0-.44.18-.8.4-.8.22 0 .4-.36.4-.8 0-.44.18-.8.4-.8.22 0 .4-.36.4-.8 0-.44.18-.8.4-.8.22 0 .4-.36.4-.8 0-.44.18-.8.4-.8.22 0 .4-.36.4-.8 0-.44.18-.8.4-.8.22 0 .4-.36.4-.8 0-.44.18-.8.4-.8.22 0 .4-.36.4-.8 0-.44.18-.8.4-.8.22 0 .4-.36.4-.8 0-.44.18-.8.4-.8.22 0 .4-.36.4-.8 0-.44.18-.8.4-.8.22 0 .4-.36.4-.8 0-.44.146-.8.325-.8.179 0 .573-.63.875-1.4.302-.77.696-1.4.875-1.4.179 0 .325-.36.325-.8 0-.44.18-.8.4-.8.22 0 .4-.234.4-.52 0-.699.933-2.673 1.265-2.677.146-.002.386-.723.535-1.603.149-.88.434-1.6.635-1.6s.365-.36.365-.8c0-.44.18-.8.4-.8.22 0 .4-.36.4-.8 0-.44.18-.8.4-.8.22 0 .4-.36.4-.8 0-.44.18-.8.4-.8.22 0 .4-.36.4-.8 0-.44.18-.8.4-.8.22 0 .4-.27.4-.6 0-.33.18-.6.4-.6.22 0 .4-.36.4-.8 0-.44.18-.8.4-.8.22 0 .4-.36.4-.8 0-.44.18-.8.4-.8.22 0 .4-.36.4-.8 0-.44.18-.8.4-.8.22 0 .4-.36.4-.8 0-.44.18-.8.4-.8.22 0 .4-.36.4-.8 0-.44.18-.8.4-.8.22 0 .4-.36.4-.8 0-.44.18-.8.4-.8.22 0 .4-.36.4-.8 0-.44.18-.8.4-.8.22 0 .4-.36.4-.8 0-.44.18-.8.4-.8.22 0 .4-.345.4-.767 0-.421.137-.826.305-.9.168-.073 1.288-2.113 2.489-4.533 1.202-2.42 2.308-4.49 2.459-4.601.15-.11.4-.875.555-1.7.154-.824.441-1.499.637-1.499.195 0 .355-.36.355-.8 0-.44.18-.8.4-.8.22 0 .4-.36.4-.8 0-.44.18-.8.4-.8.22 0 .4-.36.4-.8 0-.44.18-.8.4-.8.22 0 .4-.27.4-.6 0-.33.18-.6.4-.6.22 0 .4-.36.4-.8 0-.44.18-.8.4-.8.22 0 .4-.36.4-.8 0-.44.18-.8.4-.8.22 0 .4-.36.4-.8 0-.44.18-.8.4-.8.22 0 .4-.36.4-.8 0-.44.18-.8.4-.8.22 0 .4-.36.4-.8 0-.44.18-.8.4-.8.22 0 .4-.36.4-.8 0-.44.18-.8.4-.8.22 0 .4-.36.4-.8 0-.44.18-.8.4-.8.22 0 .4-.36.4-.8 0-.44.18-.8.4-.8.22 0 .4-.36.4-.8 0-.44.18-.8.4-.8.22 0 .4-.345.4-.767 0-.421.141-.826.313-.9.476-.203 4.887-9.276 4.887-10.053 0-.374.18-.68.4-.68.22 0 .4-.36.4-.8 0-.44.18-.8.4-.8.22 0 .4-.36.4-.8 0-.44.18-.8.4-.8.22 0 .4-.36.4-.8 0-.44.18-.8.4-.8.22 0 .4-.27.4-.6 0-.33.18-.6.4-.6.22 0 .4-.36.4-.8 0-.44.18-.8.4-.8.22 0 .4-.36.4-.8 0-.44.18-.8.4-.8.22 0 .4-.36.4-.8 0-.44.18-.8.4-.8.22 0 .4-.36.4-.8 0-.44.18-.8.4-.8.22 0 .4-.36.4-.8 0-.44.18-.8.4-.8.22 0 .4-.36.4-.8 0-.44.18-.8.4-.8.22 0 .4-.36.4-.8 0-.44.18-.8.4-.8.22 0 .4-.36.4-.8 0-.44.18-.8.4-.8.22 0 .4-.36.4-.8 0-.44.18-.8.4-.8.22 0 .4-.63.4-1.4v-1.4h-56.661l.176-1.2c.097-.66.335-1.2.53-1.2s.355-.36.355-.8c0-.44.18-.8.4-.8.22 0 .4-.54.4-1.2 0-.66.18-1.2.4-1.2.22 0 .4-.36.4-.8 0-.44.18-.8.4-.8.22 0 .4-.54.4-1.2 0-.66.18-1.2.4-1.2.22 0 .4-.36.4-.8 0-.44.18-.8.4-.8.22 0 .4-.54.4-1.2 0-.66.18-1.2.4-1.2.22 0 .4-.36.4-.8 0-.44.18-.8.4-.8.22 0 .4-.272.4-.605 0-.333.208-1.008.462-1.5.996-1.926 1.138-2.312 1.138-3.09 0-.443.18-.805.4-.805.22 0 .4-.36.4-.8 0-.44.18-.8.4-.8.22 0 .4-.54.4-1.2 0-.66.18-1.2.4-1.2.22 0 .4-.249.4-.554 0-.305.269-1.07.598-1.7.328-.63.598-1.641.6-2.246.001-.605.182-1.1.402-1.1.22 0 .4-.45.4-1s.18-1 .4-1c.22 0 .4-.36.4-.8 0-.44.18-.8.4-.8.22 0 .4-.439.4-.976 0-.537.18-1.088.4-1.224.22-.136.4-.597.4-1.024 0-.427.18-.776.4-.776.22 0 .4-.54.4-1.2 0-.66.18-1.2.4-1.2.22 0 .4-.36.4-.8 0-.44.18-.8.4-.8.22 0 .4-.54.4-1.2 0-.66.18-1.2.4-1.2.22 0 .4-.36.4-.8 0-.44.18-.8.4-.8.22 0 .4-.349.4-.776 0-.427.18-.888.4-1.024.22-.136.4-.687.4-1.224 0-.537.18-.976.4-.976.22 0 .4-.45.4-1s.18-1 .4-1c.22 0 .4-.36.4-.8 0-.44.18-.8.4-.8.22 0 .4-.54.4-1.2 0-.66.18-1.2.4-1.2.22 0 .4-.36.4-.8 0-.44.147-.8.328-.8.18 0 .576-.911.879-2.025.303-1.114.696-2.115.872-2.224.177-.109.321-.638.321-1.175s.135-.977.3-.979c.34-.004 1.3-1.925 1.3-2.602 0-.244.344-1.157.764-2.027.421-.87.891-2.254 1.045-3.075.154-.821.44-1.493.636-1.493.195 0 .355-.54.355-1.2 0-.66.18-1.2.4-1.2.22 0 .4-.36.4-.8 0-.44.18-.8.4-.8.22 0 .4-.349.4-.776 0-.427.18-.888.4-1.024.22-.136.4-.687.4-1.224 0-.537.18-.976.4-.976.22 0 .4-.45.4-1s.18-1 .4-1c.22 0 .4-.36.4-.8 0-.44.18-.8.4-.8.22 0 .4-.54.4-1.2 0-.66.18-1.2.4-1.2.22 0 .4-.36.4-.8 0-.44.18-.8.4-.8.22 0 .4-.349.4-.776 0-.427.18-.888.4-1.024.22-.136.4-.687.4-1.224 0-.537.18-.976.4-.976.22 0 .4-.54.4-1.2 0-.66.18-1.2.4-1.2.22 0 .4-.36.4-.8 0-.44.18-.8.4-.8.22 0 .4-.355.4-.788 0-.433.36-1.429.8-2.212.44-.783.8-1.779.8-2.212 0-.433.18-.788.4-.788.22 0 .4-.349.4-.776 0-.427.18-.888.4-1.024.22-.136.4-.687.4-1.224 0-.537.18-.976.4-.976.22 0 .4-.272.4-.605 0-.333.18-.963.4-1.4.22-.437.577-1.147.792-1.578.216-.43.514-1.555.661-2.5.148-.944.376-1.807.508-1.917.531-.444 2.039-3.726 2.039-4.438 0-.419.18-.762.4-.762.22 0 .4-.439.4-.976 0-.537.18-1.088.4-1.224.22-.136.4-.597.4-1.024 0-.427.18-.776.4-.776.22 0 .4-.54.4-1.2 0-.66.18-1.2.4-1.2.22 0 .4-.36.4-.8 0-.44.18-.8.4-.8.22 0 .4-.36.4-.8 0-.44.18-.8.4-.8.22 0 .4-.439.4-.976 0-.537.18-1.088.4-1.224.22-.136.4-.687.4-1.224 0-.537.18-.976.4-.976.22 0 .4-.36.4-.8 0-.44.18-.8.4-.8.22 0 .4-.54.4-1.2 0-.66.18-1.2.4-1.2.22 0 .4-.349.4-.776 0-.427.18-.888.4-1.024.22-.136.4-.867.4-1.624V13.6H112v101.52" fill="#020814" fill-rule="evenodd"/></svg>